<svg xmlns="http://www.w3.org/2000/svg" width="337.5" viewBox="0 0 337.5 60" height="60" version="1.0"><defs><clipPath id="a"><path d="M 0 1.640625 L 56.25 1.640625 L 56.25 58.640625 L 0 58.640625 Z M 0 1.640625"/></clipPath></defs><path fill="#E9204F" d="M 34.449219 30.140625 C 34.449219 30.585938 34.40625 31.027344 34.320312 31.464844 C 34.230469 31.902344 34.101562 32.324219 33.933594 32.738281 C 33.761719 33.148438 33.550781 33.539062 33.304688 33.910156 C 33.058594 34.28125 32.773438 34.621094 32.460938 34.9375 C 32.144531 35.253906 31.800781 35.535156 31.429688 35.78125 C 31.058594 36.027344 30.667969 36.238281 30.257812 36.40625 C 29.84375 36.578125 29.417969 36.707031 28.980469 36.792969 C 28.542969 36.882812 28.101562 36.925781 27.65625 36.925781 C 27.210938 36.925781 26.769531 36.882812 26.332031 36.792969 C 25.894531 36.707031 25.46875 36.578125 25.058594 36.40625 C 24.644531 36.238281 24.253906 36.027344 23.882812 35.78125 C 23.511719 35.535156 23.167969 35.253906 22.851562 34.9375 C 22.539062 34.621094 22.257812 34.28125 22.007812 33.910156 C 21.761719 33.539062 21.550781 33.148438 21.382812 32.738281 C 21.210938 32.324219 21.082031 31.902344 20.996094 31.464844 C 20.90625 31.027344 20.863281 30.585938 20.863281 30.140625 C 20.863281 29.695312 20.90625 29.253906 20.996094 28.820312 C 21.082031 28.382812 21.210938 27.957031 21.382812 27.546875 C 21.550781 27.136719 21.761719 26.742188 22.007812 26.375 C 22.257812 26.003906 22.539062 25.660156 22.851562 25.347656 C 23.167969 25.03125 23.511719 24.75 23.882812 24.503906 C 24.253906 24.253906 24.644531 24.046875 25.058594 23.875 C 25.46875 23.707031 25.894531 23.578125 26.332031 23.488281 C 26.769531 23.402344 27.210938 23.359375 27.65625 23.359375 C 28.101562 23.359375 28.542969 23.402344 28.980469 23.488281 C 29.417969 23.578125 29.84375 23.707031 30.257812 23.875 C 30.667969 24.046875 31.058594 24.253906 31.429688 24.503906 C 31.800781 24.75 32.144531 25.03125 32.460938 25.347656 C 32.773438 25.660156 33.058594 26.003906 33.304688 26.375 C 33.550781 26.742188 33.761719 27.136719 33.933594 27.546875 C 34.101562 27.957031 34.230469 28.382812 34.320312 28.820312 C 34.40625 29.253906 34.449219 29.695312 34.449219 30.140625 Z M 34.449219 30.140625"/><g clip-path="url(#a)"><path fill="#E9204F" d="M 27.65625 1.660156 C 14.363281 1.660156 3.199219 10.738281 0.03125 23.023438 C 0 23.132812 -0.015625 23.246094 -0.015625 23.359375 C -0.015625 24.105469 0.589844 24.714844 1.339844 24.714844 L 12.84375 24.714844 C 13.109375 24.71875 13.355469 24.644531 13.578125 24.5 C 13.800781 24.355469 13.96875 24.164062 14.074219 23.921875 C 14.074219 23.921875 14.09375 23.886719 14.101562 23.871094 C 16.472656 18.761719 21.648438 15.21875 27.660156 15.21875 C 35.914062 15.21875 42.605469 21.894531 42.605469 30.136719 C 42.605469 38.378906 35.917969 45.054688 27.664062 45.054688 C 21.65625 45.054688 16.476562 41.511719 14.101562 36.402344 C 14.097656 36.386719 14.078125 36.351562 14.078125 36.351562 C 13.859375 35.871094 13.375 35.558594 12.847656 35.558594 L 1.34375 35.558594 C 0.59375 35.558594 -0.015625 36.164062 -0.015625 36.914062 C -0.0117188 37.027344 0.00390625 37.140625 0.03125 37.253906 C 3.199219 49.535156 14.371094 58.613281 27.660156 58.613281 C 43.414062 58.609375 56.207031 45.859375 56.207031 30.132812 C 56.207031 14.402344 43.4375 1.652344 27.683594 1.652344 Z M 27.65625 1.660156"/></g><g fill="#FFF"><g><g><path d="M 38.609375 -31.75 L 46.9375 -31.75 L 38.078125 0 L 29.21875 0 L 23.65625 -20.125 L 18.125 0 L 9.265625 0 L 0.265625 -31.75 L 8.546875 -31.75 L 14.0625 -8.90625 L 19.71875 -31.75 L 28.484375 -31.75 L 33.90625 -9.265625 Z M 38.609375 -31.75" transform="translate(60.438 47.217)"/></g></g></g><g fill="#FFF"><g><g><path d="M 18.53125 -7.90625 C 19.5625 -9 20.078125 -10.566406 20.078125 -12.609375 C 20.078125 -14.660156 19.546875 -16.222656 18.484375 -17.296875 C 17.429688 -18.367188 16.179688 -18.90625 14.734375 -18.90625 C 13.296875 -18.90625 12.054688 -18.367188 11.015625 -17.296875 C 9.972656 -16.222656 9.453125 -14.660156 9.453125 -12.609375 C 9.453125 -10.566406 9.984375 -9 11.046875 -7.90625 C 12.117188 -6.820312 13.378906 -6.28125 14.828125 -6.28125 C 16.273438 -6.28125 17.507812 -6.820312 18.53125 -7.90625 Z M 5.390625 -3.25 C 2.847656 -5.632812 1.578125 -8.769531 1.578125 -12.65625 C 1.578125 -16.550781 2.84375 -19.664062 5.375 -22 C 7.90625 -24.332031 11.039062 -25.5 14.78125 -25.5 C 18.519531 -25.5 21.644531 -24.332031 24.15625 -22 C 26.675781 -19.664062 27.9375 -16.550781 27.9375 -12.65625 C 27.9375 -8.769531 26.6875 -5.632812 24.1875 -3.25 C 21.6875 -0.875 18.566406 0.3125 14.828125 0.3125 C 11.085938 0.3125 7.941406 -0.875 5.390625 -3.25 Z M 5.390625 -3.25" transform="translate(107.684 47.217)"/></g></g></g><g fill="#FFF"><g><g><path d="M 18.53125 -7.90625 C 19.5625 -9 20.078125 -10.566406 20.078125 -12.609375 C 20.078125 -14.660156 19.546875 -16.222656 18.484375 -17.296875 C 17.429688 -18.367188 16.179688 -18.90625 14.734375 -18.90625 C 13.296875 -18.90625 12.054688 -18.367188 11.015625 -17.296875 C 9.972656 -16.222656 9.453125 -14.660156 9.453125 -12.609375 C 9.453125 -10.566406 9.984375 -9 11.046875 -7.90625 C 12.117188 -6.820312 13.378906 -6.28125 14.828125 -6.28125 C 16.273438 -6.28125 17.507812 -6.820312 18.53125 -7.90625 Z M 5.390625 -3.25 C 2.847656 -5.632812 1.578125 -8.769531 1.578125 -12.65625 C 1.578125 -16.550781 2.84375 -19.664062 5.375 -22 C 7.90625 -24.332031 11.039062 -25.5 14.78125 -25.5 C 18.519531 -25.5 21.644531 -24.332031 24.15625 -22 C 26.675781 -19.664062 27.9375 -16.550781 27.9375 -12.65625 C 27.9375 -8.769531 26.6875 -5.632812 24.1875 -3.25 C 21.6875 -0.875 18.566406 0.3125 14.828125 0.3125 C 11.085938 0.3125 7.941406 -0.875 5.390625 -3.25 Z M 5.390625 -3.25" transform="translate(137.206 47.217)"/></g></g></g><g fill="#FFF"><g><g><path d="M 20.484375 -7.984375 C 21.597656 -9.054688 22.15625 -10.585938 22.15625 -12.578125 C 22.15625 -14.566406 21.597656 -16.101562 20.484375 -17.1875 C 19.367188 -18.269531 18.085938 -18.8125 16.640625 -18.8125 C 15.191406 -18.8125 13.910156 -18.273438 12.796875 -17.203125 C 11.679688 -16.128906 11.125 -14.597656 11.125 -12.609375 C 11.125 -10.617188 11.679688 -9.082031 12.796875 -8 C 13.910156 -6.914062 15.191406 -6.375 16.640625 -6.375 C 18.085938 -6.375 19.367188 -6.910156 20.484375 -7.984375 Z M 11.125 -21.9375 C 12.84375 -24.3125 15.304688 -25.5 18.515625 -25.5 C 21.722656 -25.5 24.441406 -24.285156 26.671875 -21.859375 C 28.910156 -19.429688 30.03125 -16.332031 30.03125 -12.5625 C 30.03125 -8.800781 28.910156 -5.710938 26.671875 -3.296875 C 24.441406 -0.890625 21.742188 0.3125 18.578125 0.3125 C 15.421875 0.3125 12.9375 -1.007812 11.125 -3.65625 L 11.125 0 L 3.390625 0 L 3.390625 -33.46875 L 11.125 -33.46875 Z M 11.125 -21.9375" transform="translate(166.729 47.217)"/></g></g></g><g fill="#FFF"><g><g><path d="M 20.53125 -25.234375 L 28.265625 -25.234375 L 28.265625 0 L 20.53125 0 L 20.53125 -3.703125 C 18.925781 -1.054688 16.378906 0.265625 12.890625 0.265625 C 9.992188 0.265625 7.648438 -0.695312 5.859375 -2.625 C 4.066406 -4.550781 3.171875 -7.171875 3.171875 -10.484375 L 3.171875 -25.234375 L 10.859375 -25.234375 L 10.859375 -11.53125 C 10.859375 -9.90625 11.285156 -8.644531 12.140625 -7.75 C 13.003906 -6.863281 14.1875 -6.421875 15.6875 -6.421875 C 17.195312 -6.421875 18.378906 -6.863281 19.234375 -7.75 C 20.097656 -8.644531 20.53125 -9.90625 20.53125 -11.53125 Z M 20.53125 -25.234375" transform="translate(198.286 47.217)"/></g></g></g><g fill="#FFF"><g><g><path d="M 5.03125 -3.203125 C 2.695312 -5.554688 1.53125 -8.691406 1.53125 -12.609375 C 1.53125 -16.535156 2.695312 -19.664062 5.03125 -22 C 7.375 -24.332031 10.398438 -25.5 14.109375 -25.5 C 17.179688 -25.5 19.785156 -24.738281 21.921875 -23.21875 C 24.066406 -21.695312 25.488281 -19.519531 26.1875 -16.6875 L 17.8125 -16.6875 C 17.09375 -18.195312 15.910156 -18.953125 14.265625 -18.953125 C 12.617188 -18.953125 11.394531 -18.367188 10.59375 -17.203125 C 9.800781 -16.046875 9.40625 -14.515625 9.40625 -12.609375 C 9.40625 -10.710938 9.800781 -9.179688 10.59375 -8.015625 C 11.394531 -6.859375 12.566406 -6.28125 14.109375 -6.28125 C 15.078125 -6.28125 15.832031 -6.445312 16.375 -6.78125 C 16.914062 -7.113281 17.394531 -7.703125 17.8125 -8.546875 L 26.1875 -8.546875 C 25.488281 -5.835938 24.050781 -3.679688 21.875 -2.078125 C 19.707031 -0.484375 17.117188 0.3125 14.109375 0.3125 C 10.398438 0.3125 7.375 -0.859375 5.03125 -3.203125 Z M 5.03125 -3.203125" transform="translate(229.934 47.217)"/></g></g></g><g fill="#FFF"><g><g><path d="M 11.125 0 L 3.390625 0 L 3.390625 -33.46875 L 11.125 -33.46875 L 11.125 -14.703125 L 18.953125 -25.234375 L 29.34375 -25.234375 L 18.546875 -12.34375 L 29.34375 0 L 19.078125 0 L 11.125 -10.078125 Z M 11.125 0" transform="translate(257.06 47.217)"/></g></g></g><g fill="#FFF"><g><g><path d="M 14.109375 0.3125 C 10.429688 0.3125 7.414062 -0.867188 5.0625 -3.234375 C 2.707031 -5.597656 1.53125 -8.738281 1.53125 -12.65625 C 1.53125 -16.582031 2.695312 -19.703125 5.03125 -22.015625 C 7.375 -24.335938 10.398438 -25.5 14.109375 -25.5 C 17.816406 -25.5 20.890625 -24.351562 23.328125 -22.0625 C 25.773438 -19.769531 27 -16.59375 27 -12.53125 C 27 -11.65625 26.9375 -10.835938 26.8125 -10.078125 L 9.453125 -10.078125 C 9.597656 -8.960938 10.09375 -8.050781 10.9375 -7.34375 C 11.78125 -6.632812 12.691406 -6.28125 13.671875 -6.28125 C 14.648438 -6.28125 15.378906 -6.378906 15.859375 -6.578125 C 16.347656 -6.773438 16.707031 -6.972656 16.9375 -7.171875 C 17.164062 -7.367188 17.457031 -7.691406 17.8125 -8.140625 L 26.1875 -8.140625 C 25.457031 -5.609375 24.003906 -3.566406 21.828125 -2.015625 C 19.660156 -0.460938 17.085938 0.3125 14.109375 0.3125 Z M 18.953125 -14.921875 C 18.828125 -16.097656 18.3125 -17.054688 17.40625 -17.796875 C 16.5 -18.535156 15.425781 -18.90625 14.1875 -18.90625 C 12.957031 -18.90625 11.921875 -18.535156 11.078125 -17.796875 C 10.234375 -17.054688 9.707031 -16.097656 9.5 -14.921875 Z M 18.953125 -14.921875" transform="translate(286.583 47.217)"/></g></g></g><g fill="#FFF"><g><g><path d="M 14.109375 -6.5625 L 16.859375 -6.5625 L 16.859375 0 L 12.9375 0 C 10.101562 0 7.910156 -0.625 6.359375 -1.875 C 4.804688 -3.125 4.03125 -5.269531 4.03125 -8.3125 L 4.03125 -18.8125 L 1.671875 -18.8125 L 1.671875 -25.234375 L 4.03125 -25.234375 L 4.03125 -31.375 L 11.75 -31.375 L 11.75 -25.234375 L 16.828125 -25.234375 L 16.828125 -18.8125 L 11.75 -18.8125 L 11.75 -8.3125 C 11.75 -7.144531 12.535156 -6.5625 14.109375 -6.5625 Z M 14.109375 -6.5625" transform="translate(315.157 47.217)"/></g></g></g></svg>